<svg width="96" height="96" viewBox="0 0 96 96" fill="none" xmlns="http://www.w3.org/2000/svg">
<rect width="96" height="96" rx="48" fill="#EC4E4E"/>
<path fill-rule="evenodd" clip-rule="evenodd" d="M0.935547 57.4785L12.6093 21.2812H21.4686L4.55736 68.441C2.93162 64.9919 1.70455 61.3179 0.935547 57.4785ZM91.4084 68.513L74.2968 21.2812H83.1561L95.0907 57.3453C94.3182 61.2597 93.0699 65.0032 91.4084 68.513ZM59.3436 58.5469C59.3436 56.2031 58.453 54.3906 56.6718 53.1094C54.9218 51.7969 51.8436 50.6719 47.4374 49.7344C43.0624 48.7969 39.578 47.6719 36.9843 46.3594C34.4218 45.0469 32.5155 43.4844 31.2655 41.6719C30.0468 39.8594 29.4374 37.7031 29.4374 35.2031C29.4374 31.0469 31.1874 27.5312 34.6874 24.6562C38.2186 21.7812 42.7186 20.3438 48.1874 20.3438C53.9374 20.3438 58.5936 21.8281 62.1561 24.7969C65.7499 27.7656 67.5468 31.5625 67.5468 36.1875H58.828C58.828 33.8125 57.8124 31.7656 55.7811 30.0469C53.7811 28.3281 51.2499 27.4688 48.1874 27.4688C45.0311 27.4688 42.5624 28.1562 40.7811 29.5312C38.9999 30.9062 38.1093 32.7031 38.1093 34.9219C38.1093 37.0156 38.9374 38.5938 40.5936 39.6562C42.2499 40.7188 45.2343 41.7344 49.5468 42.7031C53.8905 43.6719 57.4061 44.8281 60.0936 46.1719C62.7811 47.5156 64.7655 49.1406 66.0468 51.0469C67.3593 52.9219 68.0155 55.2188 68.0155 57.9375C68.0155 62.4688 66.203 66.1094 62.578 68.8594C58.953 71.5781 54.2499 72.9375 48.4686 72.9375C44.4061 72.9375 40.8124 72.2188 37.6874 70.7812C34.5624 69.3438 32.1093 67.3438 30.328 64.7812C28.578 62.1875 27.703 59.3906 27.703 56.3906H36.3749C36.5311 59.2969 37.6874 61.6094 39.8436 63.3281C42.0311 65.0156 44.9061 65.8594 48.4686 65.8594C51.7499 65.8594 54.3749 65.2031 56.3436 63.8906C58.3436 62.5469 59.3436 60.7656 59.3436 58.5469Z" fill="black"/>
</svg>
